<svg xmlns="http://www.w3.org/2000/svg" xmlns:svg="http://www.w3.org/2000/svg" xmlns:xlink="http://www.w3.org/1999/xlink" id="svg2" width="16" height="16" version="1.1"><defs id="defs4"><linearGradient id="linearGradient3761"><stop style="stop-color:#d7d7d7;stop-opacity:1" id="stop3763" offset="0"/><stop style="stop-color:#000;stop-opacity:1" id="stop3765" offset="1"/></linearGradient><linearGradient id="linearGradient3753"><stop style="stop-color:#000;stop-opacity:1" id="stop3755" offset="0"/><stop style="stop-color:#6f6f6f;stop-opacity:1" id="stop3757" offset="1"/></linearGradient><linearGradient id="linearGradient3759" x1="8" x2="8" y1="1" y2="15" gradientUnits="userSpaceOnUse" xlink:href="#linearGradient3753"/><linearGradient id="linearGradient3767" x1=".5" x2="15.5" y1="8" y2="8" gradientUnits="userSpaceOnUse" xlink:href="#linearGradient3761"/></defs><metadata id="metadata7"/><g id="layer1" transform="translate(0,-1036.3622)"><path style="fill:none;fill-opacity:1;stroke:url(#linearGradient3767);stroke-width:1;stroke-linecap:butt;stroke-linejoin:round;stroke-miterlimit:4;stroke-opacity:1;stroke-dasharray:none;stroke-dashoffset:0" id="path2987" d="m 15,8 c 0,3.865993 -3.134007,7 -7,7 C 4.1340068,15 1,11.865993 1,8 1,4.1340068 4.1340068,1 8,1 c 3.865993,0 7,3.1340068 7,7 z" transform="translate(0,1036.3622)"/><path style="fill:url(#linearGradient3759);stroke:#171717;stroke-width:1;stroke-linecap:butt;stroke-linejoin:round;stroke-miterlimit:4;stroke-opacity:1;stroke-dasharray:none;stroke-dashoffset:0;fill-opacity:1" id="path3757" d="M 8.0000002,15 C 4.1340069,15 1.0000001,11.865993 1,8.0000002 0.9999999,4.1340069 4.1340066,1.0000001 7.9999998,1 c 10e-8,0 2e-7,0 3e-7,0 L 8,8 z" transform="translate(0,1036.3622)"/></g></svg>