<svg xmlns="http://www.w3.org/2000/svg" xmlns:svg="http://www.w3.org/2000/svg" xmlns:xlink="http://www.w3.org/1999/xlink" id="svg2" width="22" height="22" version="1.1"><defs id="defs4"><linearGradient id="linearGradient3766" x1="4.5" x2="11.5" y1="8" y2="8" gradientUnits="userSpaceOnUse" xlink:href="#linearGradient3760"/><linearGradient id="linearGradient3760"><stop style="stop-color:#ff0;stop-opacity:1" id="stop3762" offset="0"/><stop style="stop-color:#ff6800;stop-opacity:1" id="stop3764" offset="1"/></linearGradient><linearGradient id="linearGradient3898" x1="8" x2="8" y1="4" y2="1" gradientUnits="userSpaceOnUse" xlink:href="#linearGradient3892"/><linearGradient id="linearGradient3892"><stop style="stop-color:#ffb500;stop-opacity:1" id="stop3894" offset="0"/><stop style="stop-color:#ffef00;stop-opacity:1" id="stop3896" offset="1"/></linearGradient><linearGradient id="linearGradient3930" x1="8" x2="8" y1="12" y2="15" gradientUnits="userSpaceOnUse" xlink:href="#linearGradient3924"/><linearGradient id="linearGradient3924"><stop style="stop-color:#ffb400;stop-opacity:1" id="stop3926" offset="0"/><stop style="stop-color:#fe0;stop-opacity:1" id="stop3928" offset="1"/></linearGradient><linearGradient id="linearGradient3882" x1="12" x2="15" y1="8" y2="8" gradientUnits="userSpaceOnUse" xlink:href="#linearGradient3876"/><linearGradient id="linearGradient3876"><stop style="stop-color:#ff7600;stop-opacity:1" id="stop3878" offset="0"/><stop style="stop-color:#ffef00;stop-opacity:1" id="stop3880" offset="1"/></linearGradient><linearGradient id="linearGradient3914" x1="4" x2="1" y1="8" y2="8" gradientUnits="userSpaceOnUse" xlink:href="#linearGradient3908"/><linearGradient id="linearGradient3908"><stop style="stop-color:#ffed00;stop-opacity:1" id="stop3910" offset="0"/><stop style="stop-color:#fff000;stop-opacity:1" id="stop3912" offset="1"/></linearGradient><linearGradient id="linearGradient3922" x1="5" x2="2" y1="11" y2="14" gradientUnits="userSpaceOnUse" xlink:href="#linearGradient3916"/><linearGradient id="linearGradient3916"><stop style="stop-color:#ffdc00;stop-opacity:1" id="stop3918" offset="0"/><stop style="stop-color:#fff000;stop-opacity:1" id="stop3920" offset="1"/></linearGradient><linearGradient id="linearGradient3890" x1="11" x2="14" y1="5" y2="2" gradientUnits="userSpaceOnUse" xlink:href="#linearGradient3884"/><linearGradient id="linearGradient3884"><stop style="stop-color:#ff8b00;stop-opacity:1" id="stop3886" offset="0"/><stop style="stop-color:#fff100;stop-opacity:1" id="stop3888" offset="1"/></linearGradient><linearGradient id="linearGradient3938" x1="11" x2="14" y1="11" y2="14" gradientUnits="userSpaceOnUse" xlink:href="#linearGradient3932"/><linearGradient id="linearGradient3932"><stop style="stop-color:#ff8b00;stop-opacity:1" id="stop3934" offset="0"/><stop style="stop-color:#fe0;stop-opacity:1" id="stop3936" offset="1"/></linearGradient><linearGradient id="linearGradient3906" x1="5" x2="2" y1="5" y2="2" gradientUnits="userSpaceOnUse" xlink:href="#linearGradient3900"/><linearGradient id="linearGradient3900"><stop style="stop-color:#ffde00;stop-opacity:1" id="stop3902" offset="0"/><stop style="stop-color:#ffef00;stop-opacity:1" id="stop3904" offset="1"/></linearGradient><linearGradient id="linearGradient4165" x1="5" x2="2" y1="5" y2="2" gradientUnits="userSpaceOnUse" xlink:href="#linearGradient3900"/><linearGradient id="linearGradient3767" x1=".5" x2="15.5" y1="8" y2="8" gradientUnits="userSpaceOnUse" xlink:href="#linearGradient3761"/><linearGradient id="linearGradient3761"><stop style="stop-color:#d7d7d7;stop-opacity:1" id="stop3763" offset="0"/><stop style="stop-color:#000;stop-opacity:1" id="stop3765" offset="1"/></linearGradient><linearGradient id="linearGradient3759" x1="8" x2="8" y1="1" y2="15" gradientUnits="userSpaceOnUse" xlink:href="#linearGradient3753"/><linearGradient id="linearGradient3753"><stop style="stop-color:#000;stop-opacity:1" id="stop3755" offset="0"/><stop style="stop-color:#6f6f6f;stop-opacity:1" id="stop3757" offset="1"/></linearGradient><linearGradient id="linearGradient3794" x1="8" x2="8" y1="1" y2="15" gradientUnits="userSpaceOnUse" xlink:href="#linearGradient3753"/><linearGradient id="linearGradient3130" x1="4.5" x2="11.5" y1="8" y2="8" gradientUnits="userSpaceOnUse" xlink:href="#linearGradient3760"/><linearGradient id="linearGradient3132" x1="8" x2="8" y1="4" y2="1" gradientUnits="userSpaceOnUse" xlink:href="#linearGradient3892"/><linearGradient id="linearGradient3134" x1="8" x2="8" y1="12" y2="15" gradientUnits="userSpaceOnUse" xlink:href="#linearGradient3924"/><linearGradient id="linearGradient3136" x1="12" x2="15" y1="8" y2="8" gradientUnits="userSpaceOnUse" xlink:href="#linearGradient3876"/><linearGradient id="linearGradient3138" x1="4" x2="1" y1="8" y2="8" gradientUnits="userSpaceOnUse" xlink:href="#linearGradient3908"/><linearGradient id="linearGradient3140" x1="5" x2="2" y1="11" y2="14" gradientUnits="userSpaceOnUse" xlink:href="#linearGradient3916"/><linearGradient id="linearGradient3142" x1="11" x2="14" y1="5" y2="2" gradientUnits="userSpaceOnUse" xlink:href="#linearGradient3884"/><linearGradient id="linearGradient3144" x1="11" x2="14" y1="11" y2="14" gradientUnits="userSpaceOnUse" xlink:href="#linearGradient3932"/><linearGradient id="linearGradient3146" x1="5" x2="2" y1="5" y2="2" gradientUnits="userSpaceOnUse" xlink:href="#linearGradient3900"/></defs><metadata id="metadata7"/><g id="layer1" transform="translate(0,-1030.3622)"><g id="g3041" transform="matrix(0.66666667,0,0,0.66666667,-3.3333334,347.2874)"><path id="path2991" d="M 7,4 C 7,5.6568542 5.6568542,7 4,7 2.3431458,7 1,5.6568542 1,4 1,2.3431458 2.3431458,1 4,1 5.6568542,1 7,2.3431458 7,4 z" transform="translate(13,1042.3622)" style="fill:#000;fill-opacity:1;stroke:#000;stroke-width:1;stroke-linecap:round;stroke-linejoin:round;stroke-miterlimit:4;stroke-opacity:1;stroke-dasharray:none;stroke-dashoffset:0"/><path id="path2995" d="M 15,4.5 C 15,5.8807119 13.880712,7 12.5,7 11.119288,7 10,5.8807119 10,4.5 10,3.1192881 11.119288,2 12.5,2 13.880712,2 15,3.1192881 15,4.5 z" transform="translate(13,1041.8622)" style="fill:#000;fill-opacity:1;stroke:#000;stroke-width:1;stroke-linecap:round;stroke-linejoin:round;stroke-miterlimit:4;stroke-opacity:1;stroke-dasharray:none;stroke-dashoffset:0"/><path id="path2997" d="m 6,12 c 0,1.104569 -0.8954305,2 -2,2 -1.1045695,0 -2,-0.895431 -2,-2 0,-1.104569 0.8954305,-2 2,-2 1.1045695,0 2,0.895431 2,2 z" transform="translate(12.5,1042.3622)" style="fill:#000;fill-opacity:1;stroke:#000;stroke-width:1;stroke-linecap:round;stroke-linejoin:round;stroke-miterlimit:4;stroke-opacity:1;stroke-dasharray:none;stroke-dashoffset:0"/><path id="path2999" d="M 11,11.5 C 11,12.328427 10.328427,13 9.5,13 8.6715729,13 8,12.328427 8,11.5 8,10.671573 8.6715729,10 9.5,10 c 0.828427,0 1.5,0.671573 1.5,1.5 z" transform="translate(12.5,1042.8622)" style="fill:#000;fill-opacity:1;stroke:#000;stroke-width:1;stroke-linecap:round;stroke-linejoin:round;stroke-miterlimit:4;stroke-opacity:1;stroke-dasharray:none;stroke-dashoffset:0"/><path id="path3001" d="m 15,11 c 0,0.552285 -0.447715,1 -1,1 -0.552285,0 -1,-0.447715 -1,-1 0,-0.552285 0.447715,-1 1,-1 0.552285,0 1,0.447715 1,1 z" transform="translate(12.5,1043.3622)" style="fill:#000;fill-opacity:1;stroke:#000;stroke-width:1;stroke-linecap:round;stroke-linejoin:round;stroke-miterlimit:4;stroke-opacity:1;stroke-dasharray:none;stroke-dashoffset:0"/></g><g id="g4098" transform="matrix(0.64287783,0,0,0.64287783,10.857122,364.96487)"><path id="path3778" d="M 11,8 C 11,9.6568542 9.6568542,11 8,11 6.3431458,11 5,9.6568542 5,8 5,6.3431458 6.3431458,5 8,5 c 1.6568542,0 3,1.3431458 3,3 z" transform="matrix(0.66666667,0,0,0.66666667,2.6666666,1039.0289)" style="fill:url(#linearGradient3130);fill-opacity:1;stroke:none"/><path id="path3780" d="M 8,1 8,4" transform="translate(0,1036.3622)" style="fill:none;stroke:url(#linearGradient3132);stroke-width:3.11101103;stroke-linecap:round;stroke-linejoin:miter;stroke-miterlimit:4;stroke-opacity:1;stroke-dasharray:none"/><path id="path3782" d="m 8,12 0,3" transform="translate(0,1036.3622)" style="fill:none;stroke:url(#linearGradient3134);stroke-width:3.11101103;stroke-linecap:round;stroke-linejoin:miter;stroke-miterlimit:4;stroke-opacity:1;stroke-dasharray:none"/><path id="path3784" d="m 12,8 3,0" transform="translate(0,1036.3622)" style="fill:none;stroke:url(#linearGradient3136);stroke-width:3.11101103;stroke-linecap:round;stroke-linejoin:miter;stroke-miterlimit:4;stroke-opacity:1;stroke-dasharray:none"/><path id="path3786-0" d="M 4,8 1,8" transform="translate(0,1036.3622)" style="fill:none;stroke:url(#linearGradient3138);stroke-width:3.11101103;stroke-linecap:round;stroke-linejoin:miter;stroke-miterlimit:4;stroke-opacity:1;stroke-dasharray:none"/><path id="path3788-9" d="M 5,11 2,14" transform="translate(0,1036.3622)" style="fill:none;stroke:url(#linearGradient3140);stroke-width:3.11101103;stroke-linecap:round;stroke-linejoin:miter;stroke-miterlimit:4;stroke-opacity:1;stroke-dasharray:none"/><path id="path3790" d="M 11,5 14,2" transform="translate(0,1036.3622)" style="fill:none;stroke:url(#linearGradient3142);stroke-width:3.11101103;stroke-linecap:round;stroke-linejoin:miter;stroke-miterlimit:4;stroke-opacity:1;stroke-dasharray:none"/><path id="path3792" d="m 11,11 3,3" transform="translate(0,1036.3622)" style="fill:none;stroke:url(#linearGradient3144);stroke-width:3.11101103;stroke-linecap:round;stroke-linejoin:miter;stroke-miterlimit:4;stroke-opacity:1;stroke-dasharray:none"/><path id="path3794-1" d="M 5,5 2,2" transform="translate(0,1036.3622)" style="fill:none;stroke:url(#linearGradient3146);stroke-width:3.11101103;stroke-linecap:round;stroke-linejoin:miter;stroke-miterlimit:4;stroke-opacity:1;stroke-dasharray:none"/></g><g id="g3769" transform="matrix(0.64286977,0,0,0.64286977,0.35713025,364.97322)"><path id="path2987-5" d="m 15,8 c 0,3.865993 -3.134007,7 -7,7 C 4.1340068,15 1,11.865993 1,8 1,4.1340068 4.1340068,1 8,1 c 3.865993,0 7,3.1340068 7,7 z" transform="translate(0,1036.3622)" style="fill:none;stroke:url(#linearGradient3767);stroke-width:1.55552506;stroke-linecap:butt;stroke-linejoin:round;stroke-miterlimit:4;stroke-opacity:1;stroke-dasharray:none;stroke-dashoffset:0"/><path id="path3757" d="M 8.0000002,15 C 4.1340069,15 1.0000001,11.865993 1,8.0000002 0.9999999,4.1340069 4.1340066,1.0000001 7.9999998,1 c 10e-8,0 2e-7,0 3e-7,0 L 8,8 z" transform="translate(0,1036.3622)" style="fill:url(#linearGradient3794);fill-opacity:1;stroke:#171717;stroke-width:1.55552506;stroke-linecap:butt;stroke-linejoin:round;stroke-miterlimit:4;stroke-opacity:1;stroke-dasharray:none;stroke-dashoffset:0"/></g></g></svg>