<svg xmlns="http://www.w3.org/2000/svg" xmlns:svg="http://www.w3.org/2000/svg" id="svg2" width="16" height="16" version="1.1"><metadata id="metadata7"/><g id="layer1" transform="translate(0,-1036.3622)"><path id="path2992" d="M 3,2 A 1,1 0 1 1 1,2 1,1 0 1 1 3,2 z" transform="translate(0,1036.3622)" style="fill:#000;fill-opacity:1;stroke:#000;stroke-width:1;stroke-linecap:round;stroke-linejoin:round;stroke-miterlimit:4;stroke-opacity:1;stroke-dasharray:none;stroke-dashoffset:0"/><path id="path2992-5" d="M 3,2 A 1,1 0 1 1 1,2 1,1 0 1 1 3,2 z" transform="translate(12,1036.3622)" style="fill:#000;fill-opacity:1;stroke:#000;stroke-opacity:1"/><path id="path2992-0" d="M 3,2 A 1,1 0 1 1 1,2 1,1 0 1 1 3,2 z" transform="translate(0,1048.3622)" style="fill:#000;fill-opacity:1;stroke:#000;stroke-opacity:1"/><path id="path2992-2" d="M 3,2 A 1,1 0 1 1 1,2 1,1 0 1 1 3,2 z" transform="translate(12,1048.3622)" style="fill:#000;fill-opacity:1;stroke:#000;stroke-opacity:1"/><path id="path2992-8" d="M 3,2 A 1,1 0 1 1 1,2 1,1 0 1 1 3,2 z" transform="translate(0,1042.3622)" style="fill:#000;fill-opacity:1;stroke:#000;stroke-opacity:1"/><path id="path3829" d="M 8,8 8,2" transform="translate(0,1036.3622)" style="fill:none;stroke:#000;stroke-width:1px;stroke-linecap:butt;stroke-linejoin:miter;stroke-opacity:1"/><path id="path3833" d="M 8,8 2,2" transform="translate(0,1036.3622)" style="fill:none;stroke:#000;stroke-width:1px;stroke-linecap:butt;stroke-linejoin:miter;stroke-opacity:1"/><path id="path3831" d="M 8,8 14,2" transform="translate(0,1036.3622)" style="fill:none;stroke:#000;stroke-width:1px;stroke-linecap:butt;stroke-linejoin:miter;stroke-opacity:1"/><path id="path2992-1" d="M 3,2 A 1,1 0 1 1 1,2 1,1 0 1 1 3,2 z" transform="translate(6,1036.3622)" style="fill:#000;fill-opacity:1;stroke:#000;stroke-opacity:1"/><path id="path3843" d="m 8,8 6,0" transform="translate(0,1036.3622)" style="fill:none;stroke:#000;stroke-width:1px;stroke-linecap:butt;stroke-linejoin:miter;stroke-opacity:1"/><path id="path2992-3" d="M 3,2 A 1,1 0 1 1 1,2 1,1 0 1 1 3,2 z" transform="translate(12,1042.3622)" style="fill:#000;fill-opacity:1;stroke:#000;stroke-opacity:1"/><path id="path2992-9" d="M 3,2 A 1,1 0 1 1 1,2 1,1 0 1 1 3,2 z" transform="translate(6,1048.3622)" style="fill:#000;fill-opacity:1;stroke:#000;stroke-opacity:1"/><path id="path2992-05" d="M 3,2 A 1,1 0 1 1 1,2 1,1 0 1 1 3,2 z" transform="translate(6,1042.3622)" style="fill:#000;fill-opacity:1;stroke:#000;stroke-width:3;stroke-miterlimit:4;stroke-opacity:1;stroke-dasharray:none"/><path id="path3835" d="M 8,8 2,8" transform="translate(0,1036.3622)" style="fill:none;stroke:#000;stroke-width:1px;stroke-linecap:butt;stroke-linejoin:miter;stroke-opacity:1"/><path id="path3837" d="M 8,8 2,14" transform="translate(0,1036.3622)" style="fill:none;stroke:#000;stroke-width:1px;stroke-linecap:butt;stroke-linejoin:miter;stroke-opacity:1"/><path id="path3839" d="m 8,8 0,6" transform="translate(0,1036.3622)" style="fill:none;stroke:#000;stroke-width:1px;stroke-linecap:butt;stroke-linejoin:miter;stroke-opacity:1"/><path id="path3841" d="m 8,8 6,6" transform="translate(0,1036.3622)" style="fill:none;stroke:#000;stroke-width:1px;stroke-linecap:butt;stroke-linejoin:miter;stroke-opacity:1"/></g></svg>