<svg xmlns="http://www.w3.org/2000/svg" xmlns:svg="http://www.w3.org/2000/svg" id="svg1782" width="48" height="48" version="1.0" viewBox="0 0 63.248 98.438"><metadata id="metadata72"/><defs id="defs1911"><linearGradient id="XMLID_13_-3" x1="30.419" x2="28.109" y1="41.849" y2="68.252" gradientTransform="matrix(1,0.11459461,0,0.59692215,4.7283813e-7,31.876032)" gradientUnits="userSpaceOnUse"><stop style="stop-color:#425a91;stop-opacity:1" id="stop55" offset=".006"/><stop style="stop-color:#537bba;stop-opacity:1" id="stop57" offset=".331"/><stop style="stop-color:#5d8dd1;stop-opacity:1" id="stop59" offset=".5"/><stop style="stop-color:#bedaee;stop-opacity:1" id="stop61" offset="1"/></linearGradient><linearGradient id="XMLID_14_-3" x1="7.629" x2="52.637" y1="79.306" y2="79.306" gradientTransform="matrix(1,0.0149,0,1,0,-2.201)" gradientUnits="userSpaceOnUse"><stop style="stop-color:#86704b;stop-opacity:1" id="stop66" offset=".006"/><stop style="stop-color:#4b4137;stop-opacity:1" id="stop68" offset="1"/></linearGradient></defs><g id="switch1786"><g id="g1790"><g id="Layer_1"><g id="document"><linearGradient id="XMLID_8_" x1="58.582" x2="32.582" y1="19.315" y2="48.065" gradientUnits="userSpaceOnUse"><stop id="stop1795" offset="0" style="stop-color:#9eabb0;stop-opacity:1"/><stop id="stop1797" offset=".097" style="stop-color:#8e9ca1;stop-opacity:1"/><stop id="stop1799" offset=".529" style="stop-color:#495b63;stop-opacity:1"/><stop id="stop1801" offset=".841" style="stop-color:#1e323d;stop-opacity:1"/><stop id="stop1803" offset="1" style="stop-color:#0e232e;stop-opacity:1"/></linearGradient><path id="path1805" d="M 0.021,1.188 C -0.073,15.059 0.16,73.981 0.16,80.938 C 1.403,81.695 47.008,94.792 60.222,98.438 C 61.722,97.813 62.41,97.5 63.222,97.063 C 63.305,93.172 63.16,41.403 63.16,40.251 C 63.16,39.063 57.098,29.74 55.285,26.939 C 53.684,24.465 47.285,14.158 44.535,12.127 C 40.035,10.812 14.91,3.592 2.785,0 C 2.098,0.25 1.098,0.75 0.021,1.188 z" style="fill:url(#XMLID_8_)"/><linearGradient id="XMLID_9_" x1="39.022" x2="-14.793" y1="48.301" y2="54.239" gradientUnits="userSpaceOnUse"><stop id="stop1808" offset=".006" style="stop-color:#858585;stop-opacity:1"/><stop id="stop1810" offset=".061" style="stop-color:#898989;stop-opacity:1"/><stop id="stop1812" offset=".685" style="stop-color:#b6b6b6;stop-opacity:1"/><stop id="stop1814" offset="1" style="stop-color:#c7c7c7;stop-opacity:1"/></linearGradient><polygon id="polygon1816" points=".924 1.698 1.839 80.318 59.66 97.312 61.223 96.562 61.243 39.958 58.785 37.583 43.785 14.667 43.504 13.547 42.223 12.253 2.465 1.044 .924 1.698" style="fill:url(#XMLID_9_)"/><linearGradient id="XMLID_10_" x1="215.725" x2="264.486" y1="70.96" y2="137.328" gradientTransform="matrix(-1,-0.5798,0,1,276.3398,79.9182)" gradientUnits="userSpaceOnUse"><stop id="stop1819" offset="0" style="stop-color:#585c61;stop-opacity:1"/><stop id="stop1821" offset=".287" style="stop-color:#c3c5c7;stop-opacity:1"/><stop id="stop1823" offset=".543" style="stop-color:#dedfe0;stop-opacity:1"/><stop id="stop1825" offset=".825" style="stop-color:#f6f6f7;stop-opacity:1"/><stop id="stop1827" offset="1" style="stop-color:#fff;stop-opacity:1"/></linearGradient><polygon id="polygon1829" points=".88 80.391 59.638 97.395 59.68 38.335 42.633 13.399 .88 1.641 .88 80.391" style="fill:url(#XMLID_10_)"/><linearGradient id="XMLID_11_" x1="215.08" x2="223.145" y1="87.157" y2="94.677" gradientTransform="matrix(-0.9943,-0.5952,-1e-4,1.0057,273.1538,79.8855)" gradientUnits="userSpaceOnUse"><stop id="stop1853" offset="0" style="stop-color:#9ca3a3;stop-opacity:1"/><stop id="stop1855" offset=".101" style="stop-color:#b4b8ba;stop-opacity:1"/><stop id="stop1857" offset=".131" style="stop-color:#b7bbbd;stop-opacity:1"/><stop id="stop1859" offset=".51" style="stop-color:#dee0e1;stop-opacity:1"/><stop id="stop1861" offset=".813" style="stop-color:#f6f7f7;stop-opacity:1"/><stop id="stop1863" offset="1" style="stop-color:#fff;stop-opacity:1"/></linearGradient><polygon id="polygon1865" points=".91 80.375 59.66 97.375 59.785 38.438 42.598 13.25 .83 1.687 .91 80.375" style="fill:url(#XMLID_11_)"/><g id="text"><rect id="rect3035" width="52.682" height="20.226" x="4.713" y="56.714" transform="matrix(0.96014551,0.27950061,0,1,0,0)" style="fill:#0ff;fill-opacity:.57205242"/><line style="fill:none;stroke:#858585;stroke-width:2;stroke-linecap:round" id="line1842" x1="8.044" x2="32.877" y1="53.384" y2="60.801"/><line style="fill:none;stroke:#858585;stroke-width:2;stroke-linecap:round" id="line1844" x1="8.044" x2="51.877" y1="47.548" y2="60.464"/><line style="fill:none;stroke:#858585;stroke-width:2;stroke-linecap:round" id="line1846" x1="8.044" x2="51.877" y1="41.715" y2="54.631"/><g id="g50" transform="matrix(0.87421621,0.01965927,0,0.8437227,3.5478131,-24.529867)"><linearGradient id="linearGradient2918" x1="30.419" x2="28.109" y1="41.849" y2="68.252" gradientTransform="matrix(1,0.0149,0,1,0,-2.201)" gradientUnits="userSpaceOnUse"><stop style="stop-color:#425a91;stop-opacity:1" id="stop2920" offset=".006"/><stop style="stop-color:#537bba;stop-opacity:1" id="stop2922" offset=".331"/><stop style="stop-color:#5d8dd1;stop-opacity:1" id="stop2924" offset=".5"/><stop style="stop-color:#bedaee;stop-opacity:1" id="stop2926" offset="1"/></linearGradient><path style="fill:url(#XMLID_13_-3)" id="path63" d="m 52.566,56.355909 0,28.028478 c 0,0 -25.535,-9.425778 -32.46,-10.729008 C 13.181,72.351552 7.7350005,72.68681 7.7350005,72.68681 l 0,-32.784158 38.7059995,10.897946 6.125,5.555311 z"/><linearGradient id="linearGradient2929" x1="7.629" x2="52.637" y1="79.306" y2="79.306" gradientTransform="matrix(1,0.0149,0,1,0,-2.201)" gradientUnits="userSpaceOnUse"><stop style="stop-color:#86704b;stop-opacity:1" id="stop2931" offset=".006"/><stop style="stop-color:#4b4137;stop-opacity:1" id="stop2933" offset="1"/></linearGradient><path style="fill:url(#XMLID_14_-3)" id="path70" d="M 7.748,75.164 7.629,66.841 c 0,0 10.39,4.141 11.955,2.456 2.847,-1.666 33.053,9.317 33.053,9.317 l -0.035,9.65 -44.854,-13.1 z m 3.114,-3.213 c 0.451,-0.289 1.616,-0.017 2.597,0.607 1.081,0.689 0.756,0.898 -0.822,0.523 -1.426,-0.334 -2.226,-0.841 -1.775,-1.13 z m 20.063,4.464 c -0.056,-1.324 0.262,-1.967 0.714,-1.435 0.451,0.538 0.498,1.622 0.104,2.407 -0.433,0.873 -0.754,0.492 -0.818,-0.972 z m 17.992,4.807 c 1.12,-0.717 2.363,-1.219 2.767,-1.11 0.402,0.112 0.38,0.948 -0.049,1.851 -0.432,0.905 -1.68,1.404 -2.765,1.106 -1.722,-0.467 -1.717,-0.715 0.047,-1.847 z M 8.828,69.452 c 0.786,-0.502 2.231,-0.454 3.208,0.106 1.015,0.59 0.402,0.983 -1.433,0.923 C 8.352,70.402 7.824,70.1 8.828,69.452 z m 28.123,7.936 c -0.287,-0.502 0.651,-0.682 2.093,-0.387 1.438,0.292 2.615,0.961 2.615,1.488 -0.003,1.142 -3.956,0.215 -4.708,-1.101 z m 7.079,1.056 c 0.931,-0.088 2.456,0.326 3.39,0.928 0.932,0.597 0.167,0.668 -1.696,0.159 -1.862,-0.508 -2.621,-0.996 -1.694,-1.087 z"/><path style="fill:#edecdb" id="path72" d="m 39.974,71.077 c 1.676,0.17 4.42,0.916 6.097,1.665 1.677,0.757 0.305,0.623 -3.046,-0.291 -3.355,-0.918 -4.731,-1.532 -3.051,-1.374 z M 18.343,63.282 c 2.29,-0.383 3.505,-0.028 4.672,1.358 1.203,1.435 0.472,1.562 -3.095,0.521 -4.386,-1.274 -4.482,-1.39 -1.577,-1.879 z m 9.411,3.286 c 0.918,-0.091 2.743,0.39 4.062,1.065 1.318,0.669 0.571,0.746 -1.666,0.159 -2.238,-0.581 -3.313,-1.133 -2.396,-1.224 z"/><path style="fill:#b9e3fb" id="path74" d="m 36.701,67.767 c 0,-0.912 1.272,-1.309 2.825,-0.871 2.344,0.65 2.478,0.902 0.786,1.494 -1.486,0.514 -0.94,0.777 2.033,0.995 2.239,0.16 4.372,0.379 4.743,0.489 3.932,1.139 5.419,1.988 5.419,3.089 -0.002,0.792 -3.095,0.356 -7.905,-1.116 -5.565,-1.7 -7.903,-2.909 -7.901,-4.08 z M 17.649,60.155 c 0.453,-0.287 1.62,-0.017 2.6,0.612 1.078,0.686 0.76,0.896 -0.819,0.523 C 18,60.957 17.202,60.447 17.649,60.155 z m 10.592,1.172 c 1.267,-0.33 3.769,0.323 6.095,1.598 3.646,1.992 3.482,2.031 -2.146,0.563 -4.366,-1.142 -5.487,-1.757 -3.949,-2.161 z m 20.573,6.088 c 0.451,-0.289 1.621,-0.011 2.595,0.612 1.081,0.691 0.761,0.9 -0.813,0.527 -1.435,-0.332 -2.23,-0.849 -1.782,-1.139 z"/><path style="fill:#c5dbf1" id="path76" d="m 48.81,73.619 c 0.449,-0.291 1.617,-0.013 2.593,0.61 1.078,0.685 0.762,0.899 -0.813,0.523 -1.433,-0.33 -2.234,-0.844 -1.78,-1.133 z M 23.386,64.967 c -0.475,-0.837 0.069,-0.894 1.276,-0.14 2.347,1.462 2.773,2.467 0.823,1.938 -0.7,-0.193 -1.643,-1 -2.099,-1.798 z m 10.523,2.103 c 0.449,-0.286 1.616,-0.014 2.595,0.61 1.08,0.69 0.758,0.899 -0.82,0.526 C 34.258,67.87 33.455,67.36 33.909,67.07 z m 6.403,1.26 c 1.117,-0.359 2.95,-0.37 4.065,-0.026 1.342,0.41 1.11,0.737 -0.674,0.948 -3.727,0.451 -5.867,-0.136 -3.391,-0.922 z m -1.687,-3.762 c 0.93,-0.093 2.457,0.323 3.387,0.922 0.935,0.596 0.171,0.673 -1.694,0.16 -1.862,-0.505 -2.623,-0.995 -1.693,-1.082 z M 11.785,51.875 c 0.92,-0.091 5.306,1.577 6.625,2.25 1.318,0.676 4.689,0.551 2.454,-0.038 -2.237,-0.587 -9.996,-2.116 -9.079,-2.212 z"/><path style="fill:#ffedc2" id="path78" d="m 20.665,68.966 c -2.911,-1.442 -2.204,-1.362 2.485,0.273 5.931,2.074 6.382,2.054 4.743,-0.228 -1.505,-2.095 -1.19,-1.983 1.92,0.72 2.045,1.776 3.72,3.472 3.718,3.751 0,0.721 -7.969,-2.08 -12.866,-4.516 z m 14.865,4.315 c 0.44,-0.535 1.851,-0.339 3.124,0.429 1.282,0.773 1.957,0.91 1.498,0.312 -0.462,-0.595 -2.214,-1.701 -3.906,-2.463 -1.69,-0.756 -3.449,-1.857 -3.909,-2.447 -0.458,-0.586 1.228,-0.139 3.742,0.986 2.513,1.122 3.985,0.974 6.845,2.534 4.554,2.488 6.12,4.361 6.12,4.361 0,0 -1.33,0.8 -5.66,-0.383 C 38.221,75.203 35.05,73.857 35.53,73.281 z M 9.17,64.811 c -1.256,-1.056 -0.905,-1.472 1.255,-1.513 3.63,-0.063 4.46,0.696 2.174,1.999 -0.934,0.532 -2.475,0.309 -3.429,-0.486 z"/><path style="fill:#c6e1e8" id="path80" d="m 7.798,59.497 c 0,-1.964 1.027,-1.986 7.119,-0.175 3.906,1.164 8.275,1.932 9.701,1.705 1.572,-0.254 2.295,-0.046 1.818,0.516 -0.446,0.535 3.032,1.862 8.246,3.147 8.128,1.995 8.555,2.213 4.276,2.196 -2.61,-0.013 -8.708,-0.957 -13.547,-2.097 -4.848,-1.143 -9.109,-2.006 -9.487,-1.93 -0.373,0.085 -2.354,-0.122 -4.404,-0.462 -2.879,-0.47 -3.724,-1.128 -3.722,-2.9 z m 37.07,8.554 c -0.354,-0.625 1.218,-0.624 3.498,-0.003 2.278,0.62 4.144,1.68 4.142,2.356 0,1.408 -6.664,-0.642 -7.64,-2.353 z M 26.13,59.29 c 2.731,-1.086 11.955,-1.281 11.955,2.74 -0.004,1.202 -3.554,0.785 -6.14,-0.085 -3.424,-1.148 -7.87,-1.834 -5.815,-2.655 z m 22.686,6.885 c 0.451,-0.284 1.619,-0.01 2.593,0.612 1.081,0.688 0.761,0.896 -0.813,0.526 -1.433,-0.337 -2.23,-0.846 -1.78,-1.138 z M 7.802,53.92 c 0,-0.318 1.373,-0.871 3.054,-1.231 2.764,-0.596 2.875,-0.51 1.186,0.9 -1.731,1.451 -4.24,1.644 -4.24,0.331 z m 9.9,2.163 c 2.713,-0.322 4.712,-2.316 2,-3.166 -2.255,-0.704 -12.2,-1.596 -10.507,-2.135 1.331,-0.425 4.874,0.541 8.111,0.264 4.979,-0.963 7.343,-0.119 6.979,3.454 0.146,1.84 -5.262,3.033 -7.424,2.381 -2.857,-0.865 -1.774,-0.482 0.841,-0.798 z"/><path style="fill:#ecd193" id="path82" d="M 9.752,66.718 C 7.51,64.429 7.469,64.231 9.485,65.36 c 1.33,0.746 2.368,0.691 2.371,-0.121 0.002,-1.08 0.414,-0.961 1.628,0.488 2.74,3.257 -0.631,4.15 -3.732,0.991 z m 10.57,3.941 c -2.422,-0.936 -4.403,-2.166 -4.403,-2.73 0.002,-0.568 2.106,-0.025 4.675,1.209 2.572,1.235 5.012,2.025 5.421,1.761 0.409,-0.266 0.748,0.176 0.748,0.97 -0.003,0.801 -0.466,1.23 -1.02,0.972 -0.562,-0.268 -3,-1.246 -5.421,-2.182 z m 13.211,1.723 c 0,-1.414 0.89,-1.643 2.893,-0.739 1.595,0.714 3.265,1.785 3.727,2.38 0.459,0.598 -0.16,0.496 -1.371,-0.236 -1.214,-0.729 -2.894,-0.885 -3.729,-0.343 -1.123,0.723 -1.522,0.442 -1.52,-1.062 z M 23.302,68.799 c -1.692,-2.019 -0.103,-2.403 4.479,-1.079 2.795,0.812 4.005,1.402 2.694,1.325 -1.318,-0.077 -2.065,0.426 -1.669,1.123 0.722,1.27 -4.345,0.002 -5.504,-1.369 z"/><path style="fill:#95c8f2" id="path84" d="m 7.802,55.91 c 0,-0.587 1.52,-0.39 3.369,0.438 1.851,0.829 5.664,1.722 8.468,1.991 4.312,0.406 4.679,0.211 2.392,-1.267 -2.239,-1.436 -1.96,-1.553 1.616,-0.649 19.419,-1.15 7.022,3.958 2.443,4.305 C 21.727,61.052 7.8,57.387 7.802,55.91 z m 28.296,6.616 c -0.088,-0.536 -0.088,-1.372 0,-1.86 0.086,-0.489 -0.602,-1.136 -1.533,-1.435 -0.929,-0.301 -0.473,-0.668 1.021,-0.811 3.277,-0.314 5.766,1.39 3.188,2.181 -1.194,0.367 0.212,1.13 3.998,2.174 3.551,0.983 5.51,1.041 5.003,0.149 -0.458,-0.815 0.419,-1.131 1.956,-0.713 3.759,1.03 3.55,4.215 -0.265,4.112 -4.319,-0.119 -13.18,-2.636 -13.368,-3.797 z m -25.215,-7.94 c 0.448,-0.287 1.616,-0.014 2.597,0.611 1.078,0.688 0.756,0.897 -0.823,0.522 -1.426,-0.334 -2.226,-0.845 -1.774,-1.133 z m -3.075,-2.61 c 0,-0.659 0.913,-0.949 2.032,-0.647 1.115,0.306 2.032,0.775 2.03,1.044 0,0.271 -0.915,0.56 -2.03,0.644 -1.121,0.088 -2.035,-0.378 -2.032,-1.041 z m 11.207,-0.133 c 0.451,-0.287 1.62,-0.016 2.6,0.609 1.078,0.691 0.753,0.897 -0.823,0.527 -1.426,-0.336 -2.229,-0.845 -1.777,-1.136 z"/><path style="fill:#74ade8" id="path88" d="m 20.864,53.091 c 3.7,1.052 2.471,-3.594 2.846,-2.945 0.377,0.646 2.87,5.772 5.102,6.685 2.889,1.176 2.195,1.198 -2.428,0.068 -5.48,-1.341 -7.002,-2.752 -5.52,-3.808 z m 20.477,7.251 c 0.932,-0.087 2.457,0.328 3.386,0.924 0.93,0.597 0.17,0.673 -1.691,0.166 -1.867,-0.512 -2.63,-0.999 -1.695,-1.09 z M 7.808,49.539 c 0.002,-0.685 2.289,-0.615 5.085,0.158 3.775,1.048 4.559,1.575 3.045,2.056 -2.669,0.847 -8.13,-0.64 -8.13,-2.214 z m 39.977,10.836 c 0.46,-0.557 -1.168,-2.731 -1.96,-2.948 -0.782,-0.211 -1.434,-1.018 -1.432,-1.783 0.002,-0.953 0.653,-0.715 2.065,0.74 2.596,2.678 4.283,1.804 2.162,-1.121 -1.236,-1.707 -1.111,-2.219 0.596,-2.351 0.621,-0.049 -5.528831,3.370142 -5.528831,3.370142 0,0 8.843831,-2.676142 8.836831,1.112858 -0.006,3.829 -5.057,7.691 -8.115,6.855 -1.966,-0.541 2.901,-3.302 3.376,-3.875 z"/><path style="fill:#bb9a71" id="path90" d="m 11.918,75.429 c 0.943,-0.28 2.533,0.005 3.531,0.634 2.693,1.681 2.227,1.905 -1.714,0.83 -2.261,-0.615 -2.918,-1.14 -1.817,-1.464 z m 1.291,-6.358 c 0,-0.304 0.608,-0.728 1.36,-0.943 0.74,-0.218 1.35,0.189 1.35,0.914 0,0.723 -0.611,1.147 -1.356,0.942 -0.746,-0.202 -1.354,-0.611 -1.354,-0.913 z m 5.054,1.114 c 0.921,-0.091 2.748,0.385 4.067,1.062 1.316,0.678 0.564,0.746 -1.668,0.163 -2.236,-0.588 -3.318,-1.141 -2.399,-1.225 z m 12.566,0.516 c -1.741,-1.5 -1.69,-1.664 0.338,-1.127 1.301,0.345 2.366,1.182 2.366,1.865 0,1.515 -0.151,1.475 -2.704,-0.738 z M 13.58,65.249 c 0.45,-0.292 1.62,-0.019 2.595,0.61 1.08,0.687 0.761,0.894 -0.814,0.525 -1.429,-0.338 -2.23,-0.846 -1.781,-1.135 z m 0.645,-0.063 c 0.002,-0.569 5.323,-0.042 6.444,0.264 1.113,0.302 2.03,1.021 2.028,1.585 0,0.572 -0.915,0.789 -2.03,0.481 -1.119,-0.306 -6.442,-1.764 -6.442,-2.33 z"/><path style="fill:#cbbd9e" id="path94" d="M 8.461,74.525 C 8,73.718 8.27,73.23 9.056,73.443 c 0.793,0.22 1.433,0.95 1.433,1.635 0,0.681 -0.269,0.879 -0.596,0.79 -0.33,-0.092 -0.975,-0.54 -1.432,-1.343 z m 4.738,2.003 c 0,-0.345 1.223,-0.887 2.713,-1.211 1.49,-0.322 2.711,-0.312 2.711,0.034 0,0.337 -1.221,0.884 -2.713,1.206 -1.488,0.326 -2.711,0.309 -2.711,-0.029 z m 13.89,2.804 c -1.677,-1.198 -3.031,-3.06 -3.005,-4.145 0.038,-1.674 0.256,-1.579 1.438,0.608 0.766,1.415 1.899,2.431 2.514,2.248 0.618,-0.176 1.872,0.712 2.793,1.977 1.931,2.667 0.603,2.418 -3.74,-0.688 z m 20.738,6.052 c -0.418,-0.731 0.463,-0.709 1.957,0.054 3.164,1.622 3.561,2.576 0.756,1.809 -1.076,-0.294 -2.297,-1.131 -2.713,-1.863 z m -5.806,-2.45 c 0.449,-0.292 1.619,-0.016 2.596,0.612 1.081,0.687 0.761,0.893 -0.816,0.524 -1.429,-0.335 -2.234,-0.847 -1.78,-1.136 z m -0.365,-2.999 c 0.003,-0.725 0.611,-1.149 1.358,-0.944 0.743,0.2 1.353,0.615 1.353,0.916 0,0.3 -0.612,0.727 -1.353,0.945 -0.748,0.214 -1.361,-0.199 -1.358,-0.917 z m 4.407,-2.207 c 1.303,0.044 3.44,0.626 4.741,1.297 1.306,0.664 0.24,0.627 -2.37,-0.08 -2.609,-0.712 -3.675,-1.259 -2.371,-1.217 z"/><path style="fill:#877551" id="path102" d="m 25.593,78.312 c 0.553,-0.135 0.735,-0.974 0.406,-1.873 -0.329,-0.896 0.874,-1.855 2.678,-2.124 2.647,-0.398 3.14,-0.206 2.565,1.011 -0.396,0.819 -1.562,1.262 -2.599,0.983 -1.043,-0.284 -1.739,0.155 -1.551,0.974 0.183,0.818 -0.302,1.438 -1.087,1.378 -0.782,-0.058 -0.967,-0.219 -0.412,-0.349 z m 5.99,0.919 c 0.509,-1.086 1.267,-1.566 1.684,-1.074 0.417,0.498 -0.002,1.384 -0.932,1.973 -1.335,0.849 -1.493,0.662 -0.752,-0.899 z m 4.474,1.159 c 0.832,-0.688 1.152,-1.68 0.717,-2.202 -0.443,-0.522 0.634,-0.199 2.379,0.712 2.544,1.332 2.704,1.625 0.794,1.468 -1.313,-0.105 -2.042,0.415 -1.612,1.162 0.423,0.744 -0.256,1.076 -1.51,0.735 -1.754,-0.479 -1.93,-0.911 -0.768,-1.875 z m 7.64,1.283 c -0.474,-0.834 0.07,-0.893 1.277,-0.141 2.343,1.468 2.773,2.468 0.822,1.938 -0.7,-0.191 -1.647,-0.996 -2.099,-1.797 z"/><path style="fill:#a4936f" id="path104" d="m 32.17,81.232 c 0.002,-1.779 4.229,-2.641 6.435,-1.314 0.935,0.564 1.695,1.641 1.695,2.4 0,0.977 -0.482,0.816 -1.607,-0.522 -1.239,-1.47 -2.166,-1.595 -4.065,-0.543 -1.397,0.773 -2.458,0.766 -2.458,-0.021 z M 21.026,75.529 c -2.027,-2.717 -2.023,-2.954 0.033,-3.118 1.226,-0.097 1.795,0.104 1.267,0.446 -0.534,0.337 -0.274,1.568 0.564,2.73 0.847,1.16 1.265,2.29 0.934,2.503 -0.334,0.214 -1.593,-0.94 -2.798,-2.561 z m 7.081,1.875 c -1.222,-1.057 -1.39,-1.591 -0.416,-1.336 0.885,0.231 1.988,1.086 2.448,1.894 1.042,1.818 0.568,1.69 -2.032,-0.558 z M 9.51,70.336 c 0.447,-0.284 1.617,-0.009 2.595,0.615 1.079,0.689 0.762,0.894 -0.815,0.527 C 9.856,71.14 9.06,70.627 9.51,70.336 z"/><path style="fill:#584f37" id="path106" d="m 19.976,77.663 c -1.751,-1.509 -1.713,-1.67 0.26,-1.151 1.261,0.341 2.668,1.271 3.126,2.081 1.058,1.857 -0.732,1.369 -3.386,-0.93 z m 26.928,5.179 c -1.615,-2.323 -1.593,-2.423 0.171,-0.738 1.116,1.064 2.946,2.497 4.061,3.179 1.704,1.042 1.675,1.168 -0.169,0.74 -1.215,-0.276 -3.04,-1.707 -4.063,-3.181 z M 8.461,72.047 c -0.985,-1.741 0.34,-1.377 4.064,1.107 2.611,1.739 2.604,1.78 -0.261,1.08 C 10.635,73.84 8.923,72.852 8.461,72.047 z m 32.206,9.277 c 0.45,-0.291 1.618,-0.019 2.598,0.607 1.078,0.689 0.76,0.898 -0.821,0.527 -1.43,-0.334 -2.226,-0.846 -1.777,-1.134 z m -5.678,-3.801 c -0.056,-1.325 0.265,-1.969 0.714,-1.433 0.45,0.536 0.493,1.619 0.104,2.408 -0.432,0.87 -0.752,0.488 -0.818,-0.975 z M 15.241,71.411 c -2.213,-1.472 -2.289,-1.703 -0.421,-1.265 1.263,0.289 2.669,1.198 3.127,2.005 0.963,1.688 0.918,1.675 -2.706,-0.74 z"/></g><text id="text3091" x="29.448" y="74.299" transform="matrix(1,0.30012264,0,1,0,0)" xml:space="preserve" style="font-size:61.52375031px;font-style:normal;font-weight:400;text-align:center;line-height:125%;letter-spacing:0;word-spacing:0;text-anchor:middle;fill:#000;fill-opacity:1;stroke:none;font-family:Sans"><tspan style="font-size:20.5079174px;font-weight:700;-inkscape-font-specification:Sans Bold" id="tspan3093" x="29.448" y="74.299">OCR</tspan></text></g><linearGradient id="XMLID_12_" x1="238.761" x2="211.48" y1="72.373" y2="103.698" gradientTransform="matrix(-1,-0.5798,0,1,276.3398,79.9182)" gradientUnits="userSpaceOnUse"><stop id="stop1868" offset="0" style="stop-color:#9eabb0;stop-opacity:1"/><stop id="stop1870" offset=".097" style="stop-color:#8e9ca1;stop-opacity:1"/><stop id="stop1872" offset=".529" style="stop-color:#495b63;stop-opacity:1"/><stop id="stop1874" offset=".841" style="stop-color:#1e323d;stop-opacity:1"/><stop id="stop1876" offset="1" style="stop-color:#0e232e;stop-opacity:1"/></linearGradient><path id="path1878" d="M 42.056,35.521 C 44.996,36.699 58.68,39.402 59.727,41.634 C 59.727,40.696 59.758,38.906 59.727,38.498 C 56.506,31.087 43.539,13.443 42.645,13.406 C 42.016,13.218 41.29,12.995 41.086,12.956 C 41.492,13.223 41.926,13.494 42.395,13.922 C 45.473,16.879 40.431,34.869 42.056,35.521 z" style="opacity:.68999999;fill:url(#XMLID_12_)"/><linearGradient id="XMLID_13_" x1="228.649" x2="223.554" y1="79.196" y2="74.275" gradientTransform="matrix(-1,-0.5798,0,1,276.3398,79.9182)" gradientUnits="userSpaceOnUse"><stop id="stop1881" offset="0" style="stop-color:#fff;stop-opacity:1"/><stop id="stop1883" offset=".255" style="stop-color:#fcfcfc;stop-opacity:1"/><stop id="stop1885" offset=".422" style="stop-color:#f4f4f4;stop-opacity:1"/><stop id="stop1887" offset=".564" style="stop-color:#e5e5e5;stop-opacity:1"/><stop id="stop1889" offset=".691" style="stop-color:#d0d0d0;stop-opacity:1"/><stop id="stop1891" offset=".809" style="stop-color:#b4b5b5;stop-opacity:1"/><stop id="stop1893" offset=".918" style="stop-color:#939495;stop-opacity:1"/><stop id="stop1895" offset="1" style="stop-color:#757677;stop-opacity:1"/></linearGradient><path id="path1897" d="M 59.65,38.367 C 59.289,37.596 57.394,36.531 56.617,36.226 C 53.617,35.048 44.086,33.122 44.086,33.122 L 44.227,17.719 C 44.227,17.719 44.203,16.196 43.93,15.479 C 43.602,14.617 43.332,13.351 42.16,12.234 C 45.988,13.859 60.695,38.411 59.65,38.367 z" style="fill:url(#XMLID_13_)"/><linearGradient id="XMLID_14_" x1="233.047" x2="232.872" y1="70.363" y2="84.338" gradientTransform="matrix(-1,-0.5798,0,1,276.3398,79.9182)" gradientUnits="userSpaceOnUse"><stop id="stop1900" offset=".006" style="stop-color:#858585;stop-opacity:1"/><stop id="stop1902" offset=".061" style="stop-color:#898989;stop-opacity:1"/><stop id="stop1904" offset=".685" style="stop-color:#b6b6b6;stop-opacity:1"/><stop id="stop1906" offset="1" style="stop-color:#c7c7c7;stop-opacity:1"/></linearGradient><path id="path1908" d="M 44.508,17.986 C 44.644,21.43 44.192,31.084 44.102,33.148 C 43.963,33.036 43.389,32.854 43.389,32.854 C 43.389,32.854 44.368,21.02 44.164,17.621 C 44.134,17.113 43.89,16.182 43.66,15.469 C 43.363,14.547 42.301,12.828 42.066,12.344 C 42.551,12.453 44.363,14.328 44.508,17.986 z" style="fill:url(#XMLID_14_)"/></g></g></g></g></svg>