<svg xmlns="http://www.w3.org/2000/svg" xmlns:svg="http://www.w3.org/2000/svg" id="svg2" width="16" height="16" version="1.1"><metadata id="metadata7"/><g id="layer1" transform="translate(0,-1036.3622)"><path style="fill:#000;stroke:#000;stroke-width:1;stroke-linecap:round;stroke-linejoin:round;stroke-miterlimit:4;stroke-opacity:1;stroke-dasharray:none;stroke-dashoffset:0;fill-opacity:1" id="path2991" d="M 7,4 A 3,3 0 1 1 1,4 3,3 0 1 1 7,4 z" transform="translate(0,1036.3622)"/><path style="fill:#000;fill-opacity:1;stroke:#000;stroke-width:1;stroke-linecap:round;stroke-linejoin:round;stroke-miterlimit:4;stroke-opacity:1;stroke-dasharray:none;stroke-dashoffset:0" id="path2995" d="m 15,4.5 a 2.5,2.5 0 1 1 -5,0 2.5,2.5 0 1 1 5,0 z" transform="translate(0,1035.8622)"/><path style="fill:#000;fill-opacity:1;stroke:#000;stroke-width:1;stroke-linecap:round;stroke-linejoin:round;stroke-miterlimit:4;stroke-opacity:1;stroke-dasharray:none;stroke-dashoffset:0" id="path2997" d="m 6,12 a 2,2 0 1 1 -4,0 2,2 0 1 1 4,0 z" transform="translate(-0.5,1036.3622)"/><path style="fill:#000;fill-opacity:1;stroke:#000;stroke-width:1;stroke-linecap:round;stroke-linejoin:round;stroke-miterlimit:4;stroke-opacity:1;stroke-dasharray:none;stroke-dashoffset:0" id="path2999" d="m 11,11.5 a 1.5,1.5 0 1 1 -3,0 1.5,1.5 0 1 1 3,0 z" transform="translate(-0.5,1036.8622)"/><path style="fill:#000;fill-opacity:1;stroke:#000;stroke-width:1;stroke-linecap:round;stroke-linejoin:round;stroke-miterlimit:4;stroke-opacity:1;stroke-dasharray:none;stroke-dashoffset:0" id="path3001" d="m 15,11 a 1,1 0 1 1 -2,0 1,1 0 1 1 2,0 z" transform="translate(-0.5,1037.3622)"/></g></svg>